<?xml version="1.0" encoding="UTF-8" standalone="no"?>
<!-- Created with Inkscape (http://www.inkscape.org/) -->

<svg
   version="1.1"
   id="svg1"
   width="1163.5161"
   height="850.84326"
   viewBox="0 0 1163.5161 850.84329"
   sodipodi:docname="55.svg"
   inkscape:version="1.3.2 (091e20ef0f, 2023-11-25)"
   xmlns:inkscape="http://www.inkscape.org/namespaces/inkscape"
   xmlns:sodipodi="http://sodipodi.sourceforge.net/DTD/sodipodi-0.dtd"
   xmlns="http://www.w3.org/2000/svg"
   xmlns:svg="http://www.w3.org/2000/svg">
  <defs
     id="defs1" />
  <sodipodi:namedview
     id="namedview1"
     pagecolor="#ffffff"
     bordercolor="#000000"
     borderopacity="0.25"
     inkscape:showpageshadow="2"
     inkscape:pageopacity="0.0"
     inkscape:pagecheckerboard="0"
     inkscape:deskcolor="#d1d1d1"
     showgrid="false"
     inkscape:zoom="0.49186107"
     inkscape:cx="820.3536"
     inkscape:cy="212.45837"
     inkscape:window-width="1920"
     inkscape:window-height="1011"
     inkscape:window-x="0"
     inkscape:window-y="0"
     inkscape:window-maximized="1"
     inkscape:current-layer="layer1" />
  <g
     inkscape:groupmode="layer"
     id="layer1"
     inkscape:label="Layer 1"
     transform="translate(-246.26642,-212.39033)">
    <path
       style="fill:#aca793"
       d="m 512.66669,1062.9325 c -16.33359,-3.5319 -71.74277,-24.1428 -86,-31.9899 -12.21824,-6.725 -50.70185,-31.55234 -62.9311,-40.59952 -28.93226,-21.40405 -45.95494,-43.60337 -53.93986,-70.34313 l -2.98616,-10 -0.0539,8.66667 c -0.0466,7.49116 2.50758,23.12307 5.99118,36.66667 0.89292,3.4715 0.76259,3.78079 -0.98647,2.3409 -3.70286,-3.04834 -17.21818,-24.23483 -21.83671,-34.23104 -4.46687,-9.66795 -8.59029,-22.97542 -8.59029,-27.72333 0,-1.31259 -0.68273,-2.38653 -1.51718,-2.38653 -1.67919,0 -0.92279,35.79336 0.85938,40.66666 2.20281,6.02351 -6.73039,-8.50388 -11.53865,-18.76444 -7.64682,-16.31788 -10.83184,-30.32634 -10.89126,-47.90222 -0.0517,-15.29269 1.50047,-22.82807 7.02888,-34.12334 2.68799,-5.49192 2.70129,-5.65843 0.20314,-2.54332 -1.47023,1.83333 -6.13853,8.93037 -10.374,15.7712 -10.40998,16.81349 -10.54411,15.97287 -5.94422,-37.25201 2.47221,-28.60566 8.49532,-44.06218 22.62071,-58.04924 4.70454,-4.65847 8.07058,-8.46995 7.48011,-8.46995 -0.59048,0 -6.3656,3.57568 -12.83359,7.94595 -6.468,4.37028 -11.75999,7.35696 -11.75999,6.63707 0,-2.31903 10.86933,-23.02092 16.05732,-30.58302 9.0316,-13.1646 17.80069,-21.04509 30.50387,-27.41279 6.68284,-3.3499 7.03473,-3.75364 4.66666,-5.35439 -5.80811,-3.92612 -12.34582,-9.36324 -13.59288,-11.30456 -1.18038,-1.83752 0.72462,-2.06956 16.85043,-2.05247 21.12663,0.0224 32.09976,-2.4531 49.37461,-11.13873 25.42403,-12.78295 44.99381,-32.08221 80.51674,-79.40372 33.41072,-44.50775 50.16391,-60.51027 82.90064,-79.18609 l 11.94405,-6.8139 -13.27738,-0.0424 c -12.25203,-0.0391 -13.07145,-0.2019 -10.61072,-2.10783 11.28173,-8.73809 41.09106,-18.81507 74.66667,-25.2409 26.42301,-5.05694 34.40931,-7.23305 48.37415,-13.18105 10.85111,-4.62178 24.468,-6.93626 47.81068,-8.12646 l 18.8515,-0.9612 -3.09328,-6.83674 c -1.7013,-3.76021 -3.50124,-9.08674 -3.99988,-11.83674 -1.02884,-5.67415 0.22483,-14.33333 2.07518,-14.33333 0.67695,0 5.89977,4.69715 11.60625,10.43811 12.00686,12.07942 20.51062,17.27513 37.20039,22.7291 18.57396,6.06968 36.76168,8.64669 55.01375,7.79485 17.57552,-0.82026 26.12735,-3.03451 35.37365,-9.15901 l 6.42507,-4.25579 -4.58317,-2.35131 c -4.73013,-2.4267 -14.38761,-12.18186 -14.38761,-14.53313 0,-1.72886 0.50007,-1.70318 14.76289,0.75818 20.59592,3.55427 35.58846,-0.37574 52.7159,-13.81847 l 7.80034,-6.12222 -8.79784,-1.62375 c -4.83881,-0.89306 -11.12661,-2.82356 -13.97289,-4.28998 -6.1149,-3.15045 -14.47649,-11.46082 -13.35586,-13.27405 0.43211,-0.69916 5.3022,-1.56107 10.82242,-1.91533 27.95888,-1.79429 57.45995,-30.38859 62.03864,-60.13177 1.07225,-6.96534 0.92263,-13.62313 -0.64063,-28.50572 -2.4975,-23.77682 -2.51133,-30.52324 -0.0992,-48.40637 3.24751,-24.07692 9.39558,-39.19665 17.03014,-41.88158 4.47258,-1.57292 15.92476,1.59797 31.43517,8.7038 22.42982,10.27582 41.31142,23.44885 60.50202,42.21003 l 12.9077,12.61885 13.759,-3.45949 c 19.5557,-4.91699 28.9714,-6.17032 46.4256,-6.17971 16.4138,-0.009 31.4125,2.14642 45.2749,6.50581 l 8.6081,2.70708 5.3919,-4.62452 c 11.4995,-9.86301 35.2724,-27.29894 46.7251,-34.26994 27.1394,-16.51909 45.9139,-24.15678 57.5352,-23.40604 7.873,0.50861 9.4604,2.86864 14.6238,21.74238 3.3776,12.34647 3.648,15.20836 3.6523,38.66666 0,22.4366 -0.4158,27.38483 -3.6717,43.27471 l -3.6762,17.94137 7.474,17.39196 c 11.9589,27.82824 20.9252,38.38208 36.4402,42.89243 7.4653,2.17021 21.9654,2.04627 35.2891,-0.30162 4.2772,-0.75372 5,-0.52838 5,1.55874 0,3.92031 -12.8017,14.83399 -23.7434,20.24166 l -10.0976,4.99053 6.5871,1.0376 c 3.623,0.57067 9.4372,0.7023 12.9206,0.29251 3.4833,-0.40979 6.3333,-0.4622 6.3333,-0.11646 0,1.68595 -10.988,10.85952 -18.9886,15.85305 -4.9437,3.0856 -8.9937,6.06018 -9,6.61018 -0.01,0.55 5.3822,1 11.9743,1 13.0982,0 20.8425,-2.17586 30.0761,-8.45025 6.0037,-4.07967 7.091,-3.04887 3.8929,3.69066 -4.1886,8.82688 -12.6994,16.96193 -22.4895,21.49661 l -9.2385,4.27919 7.22,2.09677 c 11.1075,3.22575 26.2397,5.23021 34.8063,4.61056 4.2609,-0.3082 7.7414,-0.22208 7.7345,0.19138 -0.01,0.41346 -1.7716,3.81872 -3.9216,7.56725 -6.9212,12.06703 -17.1568,18.54932 -33.343,21.11626 l -10.0562,1.59479 6.3519,4.08297 c 3.4936,2.24563 10.8429,6.10216 16.3319,8.57005 5.4889,2.4679 9.9806,4.84024 9.9814,5.27186 0,1.23132 -21.0871,17.60808 -30.4708,23.66184 -13.3582,8.61784 -21.3477,11.08689 -38.4672,11.88777 l -14.9395,0.69889 1.9395,3.75048 c 1.0667,2.06277 1.9394,4.41873 1.9394,5.23547 0,2.56269 6.1175,14.91297 12.4767,25.18871 9.4757,15.31151 14.0973,32.5665 14.1636,52.88051 0.034,10.40009 2.3338,22.79041 4.9799,26.82884 5.9203,9.03561 -6.4843,0.49288 -23.2868,-16.03694 -6.05,-5.95181 -11,-10.46016 -11,-10.01855 0,0.44161 0.9381,3.42837 2.0846,6.63723 4.256,11.91125 3.2245,35.73811 -2.3142,53.45632 -2.287,7.31594 -3.1128,13.49341 -3.3482,25.04465 -0.1718,8.43333 -0.3571,15.93333 -0.4117,16.66666 -0.1882,2.52836 -5.742,-5.35509 -9.7339,-13.81717 -4.514,-9.56872 -5.3497,-9.24291 -7.8181,3.04773 -1.4326,7.13358 -1.3626,7.48593 2.3659,11.91686 2.1132,2.51126 6.4404,9.35798 9.6159,15.21494 7.2693,13.40762 17.4619,25.74008 29.233,35.37037 13.6143,11.13833 22.513,15.99844 40.6439,22.19814 8.9922,3.07479 19.1678,7.39043 22.6124,9.59032 18.5868,11.87038 28.0958,34.95405 19.8769,48.25253 -3.625,5.86541 -14.5173,11.55961 -22.112,11.55961 -3.7556,0 -8.3348,1.55349 -14.7382,5 -9.148,4.92376 -9.5133,4.99934 -23.9563,4.95724 -23.1281,-0.0674 -33.8665,-4.32737 -87.7512,-34.81118 -16.2702,-9.20444 -33.6181,-19.09616 -38.5508,-21.9816 l -8.9686,-5.24626 -7.2049,5.86846 c -11.5342,9.39469 -20.3401,12.9761 -40.8579,16.61705 l -6,1.06473 11.4802,7.67514 c 7.9754,5.33198 16.1165,9.30594 26.6667,13.01688 8.3525,2.93795 17.9774,7.1284 21.3886,9.31211 9.1187,5.83747 18.0883,16.09069 22.703,25.95209 3.5223,7.52695 3.9923,9.83024 3.5198,17.24956 -0.441,6.92644 -1.3309,9.65471 -4.6573,14.27755 -5.5438,7.70474 -16.0172,13.05843 -27.2331,13.92084 -5.4628,0.42003 -11.8177,2.11858 -17.6564,4.71927 -8.3869,3.73569 -9.9984,4.00958 -20,3.39943 -14.0271,-0.85573 -26.4136,-5.06731 -54.2115,-18.43268 -17.4686,-8.39901 -26.8422,-11.93842 -45.5091,-17.18408 -26.2859,-7.3867 -25.3564,-7.21629 -79.89181,-14.64631 -46.47675,-6.33209 -56.37138,-8.64773 -70.98525,-16.61266 -8.87381,-4.83645 -14.10384,-6.60053 -27.61386,-9.31409 -9.16667,-1.84118 -21.3568,-3.76113 -27.08919,-4.26654 l -10.42252,-0.91894 5.70013,-5.808 5.70013,-5.80801 -3.94427,0.0581 c -2.16936,0.0319 -6.34428,0.5214 -9.27762,1.08769 -4.98973,0.96328 -14.97591,0.41741 -30.66666,-1.67634 l -6.66667,-0.88958 10.2336,5.34271 c 5.62849,2.93849 10.57236,5.89082 10.98639,6.56073 0.41403,0.66991 -2.08182,1.6431 -5.54633,2.16264 -8.71062,1.30623 -32.77291,7.39253 -34.07599,8.61914 -0.58795,0.55345 3.31205,1.35796 8.66666,1.78779 11.85056,0.95129 20.72322,3.89548 26.17075,8.68419 2.2501,1.97796 5.8885,4.59877 8.08535,5.82401 5.13019,2.86124 10.84772,14.07411 11.41286,22.3822 l 0.43329,6.36965 -8.18329,2.26504 c -11.43684,3.16559 -19.47753,8.55127 -66.84996,44.7763 -21.69135,16.58706 -41.54897,27.88566 -61.79907,35.16266 -21.44873,7.7077 -67.07286,14.0416 -88.74705,12.3207 -5.93297,-0.4711 -17.53722,-2.228 -25.78722,-3.9039 -8.25,-1.6761 -14.96684,-2.7218 -14.92631,-2.324 0.0405,0.398 4.98246,4.6084 10.98205,9.3564 l 10.90836,8.6328 -5.98205,1.0883 c -18.73108,3.4077 -72.67483,-5.3372 -105.12157,-17.0414 -5.36941,-1.9369 -10.06543,-3.2187 -10.43558,-2.8485 -0.37016,0.3701 5.77352,7.0264 13.65261,14.7918 7.8791,7.7653 14.08492,14.2991 13.79072,14.5194 -0.29419,0.2203 -1.7349,0.1411 -3.20157,-0.176 z"
       id="path4" />
    <path
       style="fill:#917c6f"
       d="m 1083.3099,451.97904 15.099,11.55931 c 0,0 7.3091,-0.27054 8.8395,-0.27054 1.5304,0 16.9515,-6.93288 16.9515,-6.93288 l 2.0412,-5.17427 -17.0148,-5.50163 -11.2336,-0.29588 -10.5767,1.69104 z"
       id="path3" />
    <path
       id="path2"
       style="fill:#ddff55"
       d="m 1023.8828,377.46875 -16.5234,5.6875 -4.0489,6.28906 1.8457,18.7168 4.3965,11.82422 10.2696,9.85742 10.4218,1.0332 11.3379,2.00977 18.1192,-8.08399 c 0,0 8.8789,-9.72753 8.8789,-11.5957 0,-1.86817 -0.6504,-8.96484 -0.6504,-8.96484 l -20.0332,-18.02149 z m 155.2461,10.25977 -14.875,0.25781 -11.1562,7.18555 -12.6856,12.24609 8.7891,14.96484 9.8027,8.01367 10.918,5.08008 15.959,-3.45117 9.7421,-4.91797 7.375,-10.41406 5.4239,-21.5957 -20.0332,-5.02539 z" />
    <path
       id="path1"
       style="fill:#000000"
       d="M 954.2547 212.48213 C 952.30975 212.29502 950.75565 212.39162 949.63751 212.78486 C 942.00302 215.46977 935.85568 230.58894 932.60822 254.66572 C 930.19609 272.54871 930.21034 279.29529 932.70783 303.07197 C 934.27104 317.95447 934.4207 324.61256 933.34845 331.57783 C 928.76981 361.32082 899.26808 389.91635 871.30939 391.71064 C 865.78919 392.0649 860.91923 392.92555 860.48712 393.62471 C 859.36649 395.43789 867.72774 403.74965 873.84259 406.9001 C 876.68885 408.36647 882.97646 410.2961 887.81525 411.18916 L 896.61408 412.81416 L 888.8133 418.93525 C 871.68595 432.37789 856.69228 436.30786 836.0965 432.75361 C 821.83377 430.29225 821.33478 430.26696 821.33478 431.9958 C 821.33478 434.34707 830.99139 444.1023 835.7215 446.529 L 840.30548 448.88056 L 833.8797 453.13642 C 824.63347 459.2609 816.08208 461.47437 798.50665 462.29463 C 780.25472 463.14647 762.0668 460.56932 743.49298 454.49971 C 726.80333 449.04576 718.29858 443.85054 706.29181 431.77119 C 700.58538 426.0303 695.36329 421.33369 694.68634 421.33369 C 692.83599 421.33369 691.58133 429.99162 692.61017 435.66572 C 693.10879 438.4157 694.90887 443.74345 696.61017 447.50361 L 699.70392 454.33955 L 680.85236 455.30049 C 657.50984 456.49069 643.89283 458.80568 633.04181 463.42744 C 619.07704 469.37539 611.08961 471.55219 584.66681 476.60908 C 551.09141 483.03484 521.28241 493.11129 510.0008 501.84931 C 507.54007 503.75524 508.36021 503.91764 520.61212 503.95674 L 533.88947 503.99971 L 521.94415 510.81416 C 489.20769 529.48981 472.45427 545.49228 439.04376 589.9997 C 403.52109 637.32091 383.95198 656.62112 358.52814 669.404 C 341.25343 678.08956 330.27963 680.56507 309.15314 680.54267 C 293.02742 680.52557 291.1212 680.75789 292.30158 682.59541 C 293.54864 684.53673 300.08724 689.97398 305.89533 693.9001 C 308.26335 695.5008 307.91208 695.90371 301.22931 699.25361 C 288.5262 705.62124 279.75698 713.50119 270.7254 726.66572 C 265.53746 734.22775 254.66681 754.93072 254.66681 757.2497 C 254.66681 757.96959 259.9586 754.98322 266.42658 750.61299 C 272.8945 746.24274 278.67008 742.66572 279.26056 742.66572 C 279.85103 742.66572 276.48461 746.478 271.78009 751.13642 C 257.65482 765.12339 251.63314 780.5798 249.16095 809.18525 C 244.56111 862.40976 244.6944 863.2506 255.10431 846.4372 C 259.33976 839.59644 264.00908 832.49903 265.47931 830.66572 C 267.97744 827.55061 267.96413 827.71679 265.27619 833.20869 C 259.7478 844.50389 258.19519 852.04109 258.24689 867.33369 C 258.30629 884.90945 261.49076 898.91827 269.13751 915.23603 C 273.94575 925.49652 282.87934 940.02319 280.67658 933.9997 C 278.89441 929.12645 278.13801 893.33369 279.8172 893.33369 C 280.65165 893.33369 281.33478 894.40782 281.33478 895.72041 C 281.33478 900.46827 285.4578 913.77518 289.92462 923.44306 C 294.54313 933.4392 308.0577 954.62524 311.76056 957.67353 C 313.5096 959.11342 313.63981 958.80519 312.74689 955.33369 C 309.26331 941.79018 306.71005 926.15681 306.75665 918.66572 L 306.80939 909.9997 L 309.79572 919.9997 C 317.78057 946.7393 334.80507 968.93959 363.73712 990.34345 C 375.9663 999.39061 414.44864 1024.2181 426.66681 1030.9431 C 440.92395 1038.7902 496.33334 1059.3994 512.66681 1062.9313 C 514.13346 1063.2484 515.57575 1063.3294 515.86994 1063.1091 C 516.16414 1062.8888 509.95797 1056.3548 502.07892 1048.5895 C 494.1999 1040.8248 488.05642 1034.1667 488.42658 1033.7966 C 488.79673 1033.4264 493.49276 1034.7093 498.86212 1036.6462 C 531.30865 1048.3504 585.25228 1057.0949 603.98322 1053.6872 L 609.96564 1052.5993 L 599.05744 1043.9665 C 593.05787 1039.2184 588.11551 1035.0071 588.07501 1034.6091 C 588.03451 1034.2112 594.75082 1035.2572 603.0008 1036.9333 C 611.25073 1038.6093 622.855 1040.3665 628.7879 1040.8376 C 650.46195 1042.5585 696.08736 1036.225 717.53595 1028.5173 C 737.78591 1021.2404 757.64359 1009.9403 779.33478 993.35322 C 826.70688 957.12845 834.74764 951.74342 846.18439 948.57783 L 854.36798 946.3122 L 853.93439 939.94306 C 853.36925 931.63504 847.65242 920.42147 842.52228 917.56025 C 840.32545 916.33501 836.68642 913.71399 834.43634 911.73603 C 828.98886 906.94737 820.11496 904.00373 808.26447 903.05244 C 802.90988 902.62261 799.0105 901.81878 799.59845 901.26533 C 800.90151 900.03874 824.96407 893.95242 833.67462 892.64619 C 837.13911 892.12665 839.63553 891.15204 839.2215 890.48213 C 838.80747 889.81222 833.86359 886.86005 828.23517 883.92158 L 818.0008 878.57978 L 824.66681 879.46845 C 840.35742 881.5622 850.34507 882.10947 855.33478 881.14619 C 858.26812 880.5799 862.44281 880.0902 864.61212 880.0583 L 868.55548 879.9997 L 862.85626 885.8083 L 857.15509 891.61494 L 867.57892 892.53486 C 873.31126 893.04027 885.50019 894.95931 894.66681 896.80049 C 908.17674 899.514 913.40826 901.27851 922.28205 906.11494 C 936.8958 914.07982 946.79002 916.39618 993.26642 922.72822 C 1047.8013 930.15817 1046.8731 929.98807 1073.159 937.3747 C 1091.8259 942.62034 1101.1982 946.15936 1118.6668 954.5583 C 1146.4647 967.9236 1158.8526 972.13616 1172.8797 972.99189 C 1182.8813 973.60204 1184.4928 973.32717 1192.8797 969.5915 C 1198.7184 966.99081 1205.0732 965.29278 1210.536 964.87275 C 1221.7512 964.01034 1232.2246 958.65555 1237.7684 950.95088 C 1241.0948 946.32806 1241.9856 943.59995 1242.4266 936.67353 C 1242.8991 929.25428 1242.4274 926.95046 1238.9051 919.42353 C 1234.2904 909.5622 1225.3226 899.30981 1216.2039 893.47236 C 1212.7927 891.28865 1203.1675 887.09779 1194.8152 884.15986 C 1184.2655 880.44892 1176.1227 876.47424 1168.1473 871.14228 L 1156.6668 863.46845 L 1162.6668 862.404 C 1183.1846 858.7631 1191.992 855.18143 1203.5262 845.78681 L 1210.7313 839.91767 L 1219.6981 845.16377 C 1224.6308 848.04916 1241.9793 857.94182 1258.2488 867.14619 C 1312.1335 897.62979 1322.8727 901.88934 1346.0008 901.95674 C 1360.4438 901.99884 1360.8098 901.92343 1369.9578 896.9997 C 1376.3612 893.55324 1380.9405 891.9997 1384.6961 891.9997 C 1392.2908 891.9997 1403.1824 886.30452 1406.8074 880.43916 C 1415.0263 867.14077 1405.5173 844.05751 1386.9305 832.1872 C 1383.4859 829.98736 1373.3094 825.67213 1364.3172 822.59736 C 1346.1863 816.39771 1337.2889 811.5364 1323.6746 800.39814 C 1311.9035 790.76792 1301.7115 778.43653 1294.4422 765.029 C 1291.2667 759.17209 1286.9382 752.32542 1284.825 749.81416 C 1281.0965 745.38325 1281.0272 745.02972 1282.4598 737.89619 C 1284.9282 725.60564 1285.7641 725.28066 1290.2781 734.84931 C 1294.27 743.31137 1299.8224 751.19406 1300.0106 748.66572 C 1300.0656 747.93239 1300.2509 740.43301 1300.4227 731.9997 C 1300.6581 720.44858 1301.4853 714.2707 1303.7723 706.95478 C 1309.311 689.23671 1310.3408 665.40891 1306.0848 653.49775 C 1304.9383 650.28894 1304.0008 647.30264 1304.0008 646.86103 C 1304.0008 646.41942 1308.9508 650.92882 1315.0008 656.88056 C 1331.8033 673.41029 1344.2082 681.95321 1338.2879 672.91767 C 1335.6418 668.87929 1333.3414 656.48762 1333.3074 646.0876 C 1333.2414 625.77373 1328.6191 608.51813 1319.1434 593.20674 C 1312.7842 582.93107 1306.6668 570.58188 1306.6668 568.01924 C 1306.6668 567.2025 1305.7941 564.84568 1304.7274 562.78291 L 1302.7879 559.03291 L 1317.7274 558.33369 C 1334.8462 557.53283 1342.8379 555.06474 1356.1961 546.44697 C 1365.5798 540.39326 1386.6668 524.01618 1386.6668 522.78486 C 1386.666 522.35324 1382.1733 519.98123 1376.6844 517.51338 C 1371.1954 515.04549 1363.846 511.18869 1360.3524 508.94306 L 1354.0008 504.85908 L 1364.0574 503.26533 C 1380.2436 500.69841 1390.478 494.2151 1397.3992 482.14814 C 1399.5492 478.39966 1401.3111 474.9952 1401.3211 474.58174 C 1401.3311 474.16828 1397.8476 474.08215 1393.5867 474.39033 C 1385.0201 475.00998 1369.8876 473.00473 1358.7801 469.779 L 1351.5613 467.6833 L 1360.7996 463.404 C 1370.5897 458.86937 1379.1013 450.73277 1383.2899 441.90596 C 1386.488 435.16645 1385.399 434.13688 1379.3953 438.2165 C 1370.1617 444.49087 1362.4167 446.66572 1349.3192 446.66572 C 1342.7271 446.66572 1337.3365 446.21572 1337.3465 445.66572 C 1337.3565 445.11572 1341.4028 442.1419 1346.3465 439.05635 C 1354.3471 434.06284 1365.3348 424.88878 1365.3348 423.20283 C 1365.3348 422.85711 1362.4841 422.91023 1359.0008 423.32002 C 1355.5174 423.72981 1349.7039 423.59772 1346.0809 423.02705 L 1339.493 421.98994 L 1349.5906 416.99971 C 1360.5323 411.59206 1373.3348 400.67778 1373.3348 396.75752 C 1373.3348 394.6704 1372.612 394.4452 1368.3348 395.19892 C 1355.0111 397.54681 1340.511 397.66987 1333.0457 395.49971 C 1317.5307 390.98936 1308.5632 380.43516 1296.6043 352.60713 L 1289.1317 335.2165 L 1292.8074 317.2751 C 1296.0633 301.38531 1296.4793 296.43612 1296.4793 273.99971 C 1296.4793 250.54155 1296.2046 247.68009 1292.827 235.33369 C 1287.6636 216.46009 1286.075 214.10011 1278.202 213.5915 C 1266.5807 212.84076 1247.8062 220.47685 1220.6668 236.9958 C 1209.2141 243.96675 1185.4417 261.40434 1173.9422 271.26728 L 1168.5496 275.89033 L 1159.9422 273.1833 C 1146.0798 268.82393 1131.0806 266.66844 1114.6668 266.67744 C 1097.2126 266.68644 1087.7967 267.94016 1068.241 272.85713 L 1054.4832 276.31806 L 1041.575 263.69892 C 1022.3844 244.93788 1003.5028 231.76374 981.07306 221.48799 C 969.44032 216.15863 960.08953 213.04345 954.2547 212.48213 z M 1274.8035 226.66572 C 1278.2917 226.66572 1281.4885 242.54807 1282.3192 263.99971 C 1282.8467 277.61975 1282.2782 288.71763 1279.9813 309.59931 C 1277.0417 336.32121 1277.0187 337.46462 1279.2606 345.59931 C 1282.4589 357.20421 1292.0901 377.25076 1299.366 387.44697 C 1305.8957 396.59751 1314.8886 404.27587 1322.1512 406.90205 C 1333.459 410.99097 1321.4171 411.13551 1306.6902 407.0876 C 1302.6699 405.98244 1295.4692 403.33894 1290.6902 401.2126 L 1282.0008 397.34541 L 1291.3895 406.41572 C 1303.4574 418.07383 1312.9794 423.44111 1328.2352 427.1833 C 1341.7877 430.5077 1341.9377 431.93683 1328.8426 432.98799 C 1318.8441 433.79057 1307.8213 431.17975 1293.7274 424.66767 C 1288.1453 422.08864 1283.3705 420.18665 1283.116 420.44111 C 1282.8616 420.69557 1285.807 423.54934 1289.661 426.78291 C 1293.5145 430.01645 1306.2744 442.00366 1318.0164 453.42158 C 1340.2852 475.07575 1347.1513 480.12087 1359.5867 483.96846 C 1369.19 486.93973 1366.714 488.61214 1354.493 487.40791 C 1337.8275 485.76574 1328.9957 482.05703 1310.0692 468.75166 C 1298.7427 460.78937 1297.6497 460.2849 1301.0281 464.57978 C 1308.818 474.48296 1342.2098 511.19817 1346.1824 514.22822 C 1352.6081 519.12931 1351.7283 520.22051 1343.6043 517.42549 C 1334.5098 514.29652 1326.8699 510.40131 1315.6258 503.15791 C 1310.6529 499.95443 1306.171 497.33369 1305.6668 497.33369 C 1304.0426 497.33369 1320.4559 513.36182 1327.159 518.32197 C 1330.7289 520.96369 1337.3283 525.10897 1341.825 527.53291 L 1350.0008 531.93916 L 1340.6141 531.97041 C 1321.8852 532.03081 1304.3586 524.81417 1271.3348 503.44892 C 1229.31 476.26078 1197.4801 465.4716 1163.8504 467.01338 C 1140.0313 468.10539 1141.932 470.21774 1167.4793 471.04658 C 1191.5609 471.82785 1199.8747 473.39537 1221.0965 481.15791 C 1242.5097 488.9905 1262.3002 500.86565 1289.8445 522.40986 C 1304.5091 533.87998 1322.0043 543.9997 1327.1688 543.9997 C 1328.2736 543.9997 1329.5475 544.60038 1330.0008 545.33369 C 1331.4145 547.62124 1315.7763 546.84148 1305.0086 544.0876 C 1291.6817 540.67916 1285.0107 537.14313 1266.6668 523.76142 C 1245.9503 508.64896 1240.7338 505.47251 1221.3348 496.16572 C 1203.6543 487.6834 1182.8147 480.00505 1168.1981 476.58955 C 1159.0101 474.44265 1136.1092 472.3499 1137.4051 473.7751 C 1137.8104 474.22085 1144.1254 475.48336 1151.4383 476.58174 C 1183.3778 481.37892 1217.7817 495.14975 1247.8504 515.16963 C 1273.4831 532.23599 1293.1081 553.03499 1299.7567 570.1833 C 1301.9921 575.94899 1305.6613 583.96642 1307.911 587.9997 C 1312.8848 596.91753 1318.0588 612.7403 1319.2449 622.66572 C 1320.0649 629.52688 1319.9843 629.82868 1318.0008 627.33369 C 1316.8348 625.86704 1313.4157 620.1657 1310.4031 614.66572 C 1277.7456 555.04432 1217.0963 502.00658 1161.3348 484.30439 C 1149.584 480.57403 1130.243 477.22564 1132.1863 479.25752 C 1132.6545 479.74708 1140.95 482.19836 1150.6219 484.70478 C 1185.3934 493.71574 1218.5434 513.86601 1252.4988 546.63056 C 1272.6203 566.04594 1286.2129 584.31416 1297.8387 607.56806 C 1303.7413 619.3745 1312.5878 642.66572 1311.1688 642.66572 C 1310.7518 642.66572 1306.4803 639.0657 1301.6785 634.66572 C 1290.2732 624.21491 1287.8883 624.14073 1293.2391 634.40205 C 1295.0293 637.83504 1296.2523 644.42146 1297.2684 656.08369 C 1298.9172 675.00916 1297.8496 686.33358 1293.0399 700.92549 L 1290.0496 709.9997 L 1289.1043 703.9997 C 1288.585 700.69975 1287.4352 692.4375 1286.5496 685.64033 C 1285.664 678.84317 1284.7973 673.44312 1284.6219 673.64033 C 1284.4465 673.83755 1283.627 681.00957 1282.8016 689.57588 C 1281.3529 704.60957 1277.3189 721.56754 1272.5516 732.66572 L 1270.2606 737.9997 L 1268.6356 728.59931 C 1267.7421 723.42907 1265.912 715.62837 1264.5672 711.26533 L 1262.1219 703.33369 L 1261.1961 720.86494 C 1260.3118 737.60904 1256.8429 764.15683 1254.8289 769.60127 C 1254.136 771.47436 1253.0331 769.17386 1250.7469 761.08369 C 1247.5472 749.76098 1239.1351 729.7541 1238.036 730.85322 C 1237.7009 731.18832 1238.083 735.63243 1238.8836 740.73017 C 1240.7147 752.38533 1239.5174 775.66083 1236.5887 785.33369 C 1233.1305 796.75568 1227.4491 806.93092 1219.9461 815.14033 C 1216.1627 819.27988 1212.6292 822.66572 1212.0945 822.66572 C 1211.5597 822.66572 1211.9756 818.6157 1213.0203 813.66572 C 1215.1112 803.75772 1214.62 779.14103 1212.2156 773.33369 C 1210.9997 770.39674 1210.8277 770.80377 1210.7527 776.75556 C 1210.5898 789.78006 1205.7069 809.73172 1199.6805 821.9997 C 1193.4077 834.76942 1183.5527 847.85567 1185.8738 840.33369 C 1187.7605 834.2192 1189.0119 810.09496 1187.9012 801.2497 C 1186.6474 791.26412 1182.4327 780.4159 1177.5711 774.66572 C 1175.1223 771.76937 1175.2572 772.55599 1178.6043 780.66572 C 1183.9925 793.72009 1185.8003 804.82975 1184.0848 814.35713 C 1181.8121 826.97865 1167.5707 853.347 1164.6199 850.39619 C 1164.2355 850.01186 1163.3742 846.34785 1162.7078 842.25361 C 1162.0415 838.1594 1160.384 832.25332 1159.0223 829.13056 L 1156.5457 823.45283 L 1152.7899 838.06025 C 1150.7243 846.0938 1148.5497 853.18813 1147.9578 853.82588 C 1147.3659 854.46363 1138.8838 849.89889 1129.1082 843.68135 C 1103.1812 827.19098 1091.8994 820.95923 1069.3367 810.66767 C 1031.3133 793.32364 1017.9594 783.48362 1009.1746 766.33369 C 1007.7659 763.58371 1006.363 761.33369 1006.0574 761.33369 C 1005.7517 761.33369 1005.8482 763.58371 1006.2723 766.33369 C 1007.7184 775.7107 1012.1363 785.19535 1018.1961 791.93525 C 1021.5246 795.63737 1023.7418 798.661 1023.1238 798.654 C 1022.5059 798.647 1019.0014 796.91398 1015.3348 794.80244 C 992.18524 781.47139 976.0008 753.92511 976.0008 727.85322 C 976.0008 721.98118 975.4897 717.49196 974.86408 717.87861 C 974.23846 718.26527 972.63022 722.05077 971.29181 726.29072 C 968.26918 735.8659 968.17638 751.76646 971.09455 759.94697 C 972.26146 763.21832 973.01341 766.09841 972.76642 766.34541 C 971.67769 767.43416 959.49388 750.47789 955.27228 741.9997 C 946.32502 724.03096 946.2303 705.97943 954.99103 687.9997 C 957.31362 683.23308 959.46141 678.82404 959.76251 678.20283 C 960.89223 675.87205 953.93903 680.5752 947.89337 686.23017 C 939.27916 694.28781 935.53499 703.22605 935.42267 715.9997 C 935.31714 727.99798 937.43476 736.20021 943.85822 748.65986 C 953.58933 767.53543 986.81771 795.21152 1010.2957 803.9958 C 1014.2512 805.47575 1023.2015 807.60651 1030.1844 808.73017 C 1044.6992 811.06583 1062.4214 817.7108 1085.4813 829.46455 C 1106.6252 840.24207 1120.5022 849.15245 1140.9735 865.10127 C 1164.0146 883.05273 1173.4899 888.61766 1190.2938 894.06416 C 1198.873 896.84485 1206.5638 900.31538 1210.0457 902.97627 C 1220.4508 910.92778 1230.4253 927.39578 1230.5926 936.89814 C 1230.7282 944.59547 1222.7062 951.12914 1209.6668 953.94306 C 1205.4593 954.85106 1205.337 954.74951 1205.327 950.43916 C 1205.309 939.80023 1199.16 929.05928 1190.536 924.59931 C 1185.7074 922.10221 1176.7953 922.10434 1174.7215 924.60322 C 1173.3961 926.20015 1173.8965 926.86539 1177.5789 928.404 C 1186.6353 932.18799 1194.1865 944.63575 1193.1199 954.02314 C 1192.7449 957.32286 1191.7611 958.30326 1187.3348 959.78877 C 1179.5429 962.40373 1164.9914 961.01342 1153.9578 956.59931 C 1145.013 953.02084 1124.9101 942.08987 1118.952 937.56416 L 1115.9031 935.24775 L 1122.0985 930.88056 C 1125.5053 928.47893 1128.0734 926.29307 1127.8035 926.02314 C 1127.5335 925.7532 1123.717 926.37838 1119.3231 927.41181 C 1108.3167 930.00058 1099.4948 929.79957 1083.5906 926.59541 C 1065.3723 922.92487 1065.0695 922.77877 1071.1688 920.65986 C 1082.3811 916.7647 1079.9503 916.00309 1055.9344 915.88252 C 1043.1377 915.81832 1029.6759 915.36827 1026.0203 914.88252 L 1019.3738 913.9997 L 1026.0985 909.69111 C 1029.7959 907.32184 1034.256 903.85743 1036.0086 901.99189 L 1039.1942 898.60127 L 1029.3426 902.66377 C 1017.9785 907.34993 1007.8896 910.04462 997.0008 911.30439 C 988.66531 912.26875 986.81336 910.6999 993.17658 908.06416 C 997.33167 906.34304 1004.9165 899.13608 1003.7742 897.99385 C 1003.3894 897.60898 999.61571 898.8774 995.38947 900.8122 C 980.42855 907.66156 964.23175 906.61539 930.66681 896.63056 C 920.03355 893.46742 907.73473 890.1306 903.33478 889.2165 L 895.33478 887.55439 L 905.83478 885.10322 C 915.66825 882.80612 926.66681 877.97077 926.66681 875.94502 C 926.66681 875.45119 923.04405 874.6676 918.61603 874.20478 C 909.21696 873.22237 898.82059 869.08596 894.68634 864.68525 L 891.77619 861.5876 L 898.96759 859.49775 C 902.92336 858.34777 909.4234 855.92411 913.4129 854.11299 L 920.66681 850.82002 L 907.16681 850.74385 C 891.65188 850.65555 884.89644 849.6212 885.85236 847.48408 C 891.52712 834.79701 893.82015 827.33576 894.36603 819.78486 C 895.24896 807.5716 892.66998 791.22831 887.31525 775.10517 C 882.74918 761.35678 875.03358 744.52356 873.84259 745.71455 C 873.48441 746.07273 874.7414 750.18333 876.63751 754.84931 C 881.63099 767.1371 885.33478 787.04072 885.33478 801.59541 C 885.33478 824.30507 879.70298 837.98938 864.96955 851.08369 C 858.49659 856.83648 855.99392 859.94435 856.27423 861.88056 C 856.77411 865.33356 861.92186 867.95487 868.2547 867.98017 C 873.0444 867.99927 875.90367 869.74461 873.5379 871.20674 C 872.49462 871.85155 821.18655 867.78667 807.22736 865.95283 L 801.7879 865.23799 L 806.16681 852.66767 C 822.20383 806.63879 817.50446 763.66067 792.59259 728.53877 C 749.83594 668.25848 652.94068 664.22786 570.23322 719.28877 C 557.75403 727.59652 536.0008 745.88268 536.0008 748.06416 C 536.0008 748.77882 540.0508 746.44695 545.0008 742.88252 C 572.15309 723.33022 604.60251 707.89598 635.33478 699.91767 C 669.75757 690.98133 702.25622 691.21632 731.03009 700.60908 C 742.80456 704.45266 763.95548 714.73321 766.56915 717.88252 C 768.76442 720.52762 769.19247 720.55406 755.10626 717.18525 C 739.6329 713.48471 715.8457 714.16873 702.92658 718.6872 C 698.30222 720.30458 694.80283 721.91306 695.15119 722.26142 C 695.49955 722.60977 700.34588 722.15877 705.92072 721.25947 C 718.22425 719.27468 741.39659 720.26776 752.66681 723.26338 C 779.71138 730.45175 797.88821 748.96617 804.52619 776.08564 C 805.70433 780.89914 806.66114 786.59854 806.65314 788.75166 L 806.63751 792.66572 L 803.11017 787.9997 C 795.24639 777.59725 782.1376 766.53338 771.41681 761.2497 C 760.63744 755.93721 746.06174 752.01468 737.33478 752.07978 C 733.20288 752.11058 733.90529 752.62274 743.46955 756.54072 C 760.79295 763.63721 770.68545 769.46059 779.65314 777.83955 C 795.43952 792.58955 803.88174 816.61859 801.9383 841.26728 C 801.04135 852.64307 798.93518 861.63358 798.75275 854.86299 C 798.47779 844.65842 785.68624 816.37307 776.65509 805.9997 C 772.61287 801.35672 772.70493 801.76126 778.34259 813.33369 C 780.66472 818.10031 783.45126 825.43893 784.53595 829.64228 C 786.64884 837.83022 790.108 863.67428 789.20978 864.56611 C 788.91203 864.86175 780.775 862.46571 771.12775 859.24189 C 734.75642 847.0877 690.91221 840.87476 661.80353 843.75166 C 637.15413 846.18786 624.2212 850.23513 594.82501 864.7126 L 568.98322 877.44111 L 580.36017 865.35322 C 588.14585 857.08251 593.49169 849.89354 597.29572 842.58174 C 600.35313 836.70495 602.66361 831.36395 602.42853 830.7126 C 602.19345 830.06119 598.1014 831.93717 593.33478 834.88056 C 548.7752 862.39634 495.51133 867.50555 456.61603 847.99385 C 437.76351 838.53655 425.71806 825.38138 419.32892 807.27314 C 416.68994 799.79369 416.05834 795.4195 416.06134 784.66572 C 416.06334 777.33244 416.6165 768.94955 417.29181 766.03681 C 417.96711 763.12411 418.3192 760.54078 418.07306 760.29463 C 417.04223 759.2638 411.58187 768.61234 409.07892 775.69502 C 399.42599 803.01027 410.12728 832.52477 436.45197 851.19306 C 469.27692 874.47112 513.86683 879.48993 557.76056 864.84736 L 571.33478 860.32002 L 564.0008 866.91572 C 555.67998 874.39908 539.15788 883.00415 527.38751 885.98603 C 523.01682 887.09332 513.71738 888.05932 506.7215 888.13252 L 494.0008 888.26533 L 502.0008 891.05439 C 508.37628 893.27652 513.24977 893.84674 526.0008 893.86494 C 548.96017 893.89764 564.3401 889.75789 594.66681 875.38252 C 616.23102 865.16069 624.89663 861.73502 635.33478 859.30439 C 640.2311 858.16423 664.00079 855.00465 664.0008 855.49385 C 664.0008 855.68759 656.33877 859.79077 646.97345 864.61103 C 626.2462 875.2792 608.8618 888.07514 599.21759 899.76728 C 595.24793 904.57993 592.0008 909.0097 592.0008 909.61103 C 592.0008 910.7499 592.65396 910.34278 614.23908 895.7126 C 634.86556 881.73212 658.81699 871.38586 683.33478 865.86689 C 693.52638 863.57274 738.28907 861.66107 742.27814 863.34931 C 743.85448 864.01646 740.48161 864.99001 732.36212 866.21064 C 701.15853 870.90156 662.7507 889.59855 638.33478 911.98408 C 633.3848 916.52242 629.33478 920.71306 629.33478 921.29658 C 629.33478 921.88008 634.58415 918.90175 641.0008 914.67744 C 664.48864 899.21459 691.64256 886.98305 716.66681 880.59541 C 731.50444 876.80798 758.29671 874.90516 767.33478 876.9958 L 772.66681 878.22822 L 764.66681 879.86689 C 739.80166 884.95659 699.75191 904.12222 684.38165 918.28681 C 680.2004 922.14014 679.99006 922.54794 683.16095 920.66572 C 698.61328 911.49324 703.80445 908.74448 713.58283 904.55439 C 736.43186 894.76347 761.956 889.28167 784.0008 889.42939 C 794.45656 889.49949 796.08633 889.77268 793.33478 890.99775 C 772.57191 900.24203 758.7498 907.68993 733.33478 923.32588 C 699.38557 944.21224 691.74983 947.99018 676.66681 951.37666 L 666.0008 953.77119 L 671.33478 954.98799 C 678.36983 956.59237 696.51259 954.1213 707.18244 950.10517 C 718.38314 945.88924 730.0492 939.93057 746.92267 929.8083 C 773.62953 913.78701 772.89588 913.99971 801.60236 913.9997 C 819.77225 913.9997 826.98806 914.45119 828.20197 915.66572 C 829.53456 916.99897 827.61325 917.33742 818.6004 917.35322 C 812.4038 917.36402 803.45369 918.28634 798.71173 919.404 C 789.2546 921.63299 767.93758 931.29345 762.66681 935.73799 C 759.48338 938.42235 759.78456 938.398 769.33478 935.19697 C 790.10646 928.23476 815.99902 926.50088 835.80158 930.74775 C 842.23004 932.12642 842.66681 932.47864 842.66681 936.25556 C 842.66681 939.7724 842.28215 940.19271 839.66681 939.53877 C 808.08254 931.6414 771.78517 938.75597 744.33478 958.22431 C 739.75147 961.4749 736.00079 964.34183 736.0008 964.59541 C 736.0008 964.84899 742.45152 962.45711 750.33478 959.279 C 758.21806 956.10093 769.16686 952.60836 774.66681 951.51924 C 785.0826 949.45668 809.16177 947.17401 808.0008 948.35908 C 807.63413 948.73333 800.91291 951.17952 793.06525 953.79463 C 776.30705 959.37898 728.84061 980.69147 726.37189 983.73994 C 725.434 984.89809 725.26747 985.48853 726.0008 985.05244 C 727.50383 984.15864 811.4907 958.66572 812.93244 958.66572 C 816.47616 958.66572 799.58149 968.05343 780.0008 976.96455 C 737.08134 996.49706 729.42879 998.718 701.84845 999.64033 C 674.07246 1000.5692 655.38955 996.67861 632.14533 985.1247 L 622.0008 980.08174 L 631.56915 989.28877 C 648.51853 1005.597 669.79663 1013.7594 695.76056 1013.9118 C 708.74868 1013.9878 710.31407 1014.2202 706.97736 1015.5817 C 696.77751 1019.7437 680.87515 1021.6951 663.38361 1020.9294 C 635.89164 1019.7258 616.08246 1013.619 598.14337 1000.8181 C 589.20123 994.43683 575.33991 980.30649 569.77814 971.90205 C 567.8725 969.02242 566.10111 966.66572 565.84259 966.66572 C 564.73239 966.66572 571.26827 981.29432 575.4715 988.21845 C 585.09625 1004.0738 600.77861 1017.4743 617.36017 1024.0095 C 627.09796 1027.8474 627.28691 1028.3316 618.64337 1027.3083 C 599.69694 1025.0654 571.91123 1014.3769 554.77228 1002.738 C 544.05624 995.4607 533.04489 984.36627 526.409 974.16181 C 520.6746 965.34367 520.40339 967.18064 525.44806 980.66377 C 531.30104 996.30734 547.30745 1015.5094 571.33478 1035.7106 L 578.0008 1041.3161 L 572.66681 1041.2536 C 565.63032 1041.1716 548.41895 1036.005 535.36994 1030.0583 C 513.08617 1019.9032 494.23108 1004.3462 481.58283 985.68135 C 474.27699 974.90034 470.78726 967.72635 466.49494 954.66572 L 462.77033 943.33369 L 462.71759 950.1208 C 462.55503 971.76426 476.36095 1000.5555 495.74494 1018.9997 C 500.17644 1023.2164 503.40006 1026.6657 502.90705 1026.6657 C 499.3543 1026.6657 480.0354 1018.9161 471.58673 1014.1013 C 445.32718 999.13645 425.32181 976.11835 416.52228 950.74189 L 413.49103 941.9997 L 413.4129 949.45869 C 413.27519 962.58896 421.37458 981.16499 434.36603 997.51338 C 438.67548 1002.9364 448.8811 1013.6406 457.04376 1021.3005 C 465.20646 1028.9604 471.71157 1035.4002 471.5008 1035.611 C 470.53975 1036.572 451.39871 1029.0686 439.33478 1023.0017 C 397.23493 1001.8289 366.9564 966.90108 359.34845 930.73408 C 356.85081 918.86077 356.78782 896.84519 359.21955 885.33369 C 360.22642 880.56704 360.8651 876.46664 360.63751 876.22236 C 359.75797 875.27834 354.33058 889.13538 351.89337 898.54658 C 346.93519 917.69255 349.17359 940.87575 357.88165 960.53877 C 359.79899 964.86811 361.12277 968.65703 360.82111 968.95869 C 360.51945 969.26036 354.32074 963.61728 347.04767 956.41963 C 324.34582 933.95319 313.67393 912.28651 312.32892 885.9333 C 311.23195 864.43944 316.20468 849.95259 329.77619 835.10322 C 336.88742 827.32237 335.57901 825.65922 327.20001 831.82783 C 311.67061 843.26067 300.17691 865.62513 297.85236 888.92744 C 296.43912 903.09439 295.47846 904.31941 292.9422 895.19697 C 287.0392 873.96497 286.95425 857.63775 292.66876 843.32588 L 295.86017 835.33369 L 290.59455 841.33369 C 283.33004 849.61319 276.42571 863.24614 273.29376 875.49189 C 271.84599 881.1528 270.36187 886.08199 269.99689 886.44697 C 268.70898 887.73488 269.35386 862.70353 270.7879 855.73213 C 271.5873 851.84606 274.63096 843.66152 277.55158 837.54463 C 286.64413 818.50124 304.095 804.07896 323.53205 799.54463 C 327.90391 798.52473 333.24643 796.76549 335.40509 795.63447 L 339.32892 793.57783 L 333.99884 792.50947 C 331.09756 791.92817 321.61454 791.43955 312.89142 791.4001 L 292.95587 793.95283 L 286.97931 796.00752 C 286.85695 796.06592 286.79458 796.08852 286.66681 796.1501 C 281.16686 798.79945 273.45765 803.14885 269.534 805.81611 C 265.61033 808.48335 262.13749 810.66572 261.8172 810.66572 C 260.29918 810.66572 272.48639 794.62345 278.20978 789.0876 C 286.94736 780.63634 315.80976 764.02347 321.82892 763.98017 C 325.30514 763.95517 328.73728 761.94595 327.0672 760.91377 C 326.39677 760.49942 322.88119 759.77166 319.25665 759.29658 C 306.88774 757.67525 289.44483 763.56686 272.20001 775.19111 C 268.27637 777.83594 264.83191 779.9997 264.54572 779.9997 C 264.25952 779.9997 265.94619 776.8497 268.29376 772.9997 C 278.02314 757.04391 293.69181 746.22722 315.97345 740.08369 C 327.14169 737.00436 343.10425 736.46501 347.5047 739.01924 C 349.06531 739.9251 351.56631 741.4102 353.06134 742.32002 C 355.68378 743.91595 355.73027 743.79975 354.409 738.98799 C 351.7801 729.41395 349.58639 726.82794 339.99884 721.9997 C 331.49603 717.71776 329.7642 717.33369 318.94611 717.33369 C 312.4625 717.33369 303.70912 717.97071 299.49494 718.7497 C 295.28072 719.52874 291.16197 719.94276 290.34259 719.66963 C 287.65874 718.77502 304.46711 709.29868 313.33478 706.70674 C 318.26921 705.26442 328.42866 703.84894 336.92658 703.41963 C 352.54084 702.6308 366.09618 698.88242 373.33478 693.35322 L 376.66681 690.8083 L 371.33478 691.95869 C 360.78282 694.235 338.66681 694.26262 338.66681 691.9997 C 338.66681 691.26641 339.44339 690.66572 340.39142 690.66572 C 344.25156 690.66572 374.89056 674.32837 384.75665 667.00947 C 390.57372 662.6942 401.55581 652.90117 409.16095 645.24775 C 416.76607 637.59431 422.63184 632.53308 422.19415 633.9997 C 421.75646 635.46637 419.54873 642.96577 417.2879 650.66572 C 408.57751 680.33189 392.52504 706.74572 374.69025 720.75752 C 366.96013 726.83066 366.61126 727.33482 369.30939 728.53877 C 373.28195 730.3114 386.52152 727.50019 397.0008 722.65791 C 401.58408 720.54005 405.33478 719.13153 405.33478 719.529 C 405.33478 721.60995 391.71598 740.0888 384.20001 748.20674 L 375.5633 757.53681 L 380.78205 756.56806 C 396.393 753.67457 410.27338 746.05274 422.25665 733.79072 C 429.11487 726.773 438.22041 714.66572 436.64142 714.66572 C 436.19043 714.66572 432.30965 717.7578 428.01642 721.53681 C 420.62254 728.04521 407.6875 737.456 407.03009 736.80439 C 406.53186 736.31057 425.34108 701.22099 429.97931 693.99189 C 432.33448 690.3212 435.29295 685.22243 436.55353 682.65986 C 438.64879 678.40057 438.23735 678.63728 431.75665 685.41963 C 425.52504 691.94131 405.37264 707.99971 403.42072 707.9997 C 403.02413 707.9997 404.70458 704.8497 407.15314 700.9997 C 409.60173 697.14975 416.58135 685.29896 422.6629 674.66572 C 438.73573 646.56343 450.99091 629.15176 465.33478 614.03681 C 472.30139 606.6957 476.80144 601.55481 475.33478 602.61299 C 466.74651 608.80927 455.13714 619.20872 444.22931 630.48017 L 431.79181 643.33369 L 439.32697 628.53486 C 461.63882 584.72107 501.31879 550.72592 548.0008 535.42939 C 563.62267 530.3105 561.06145 528.9771 543.98322 533.3376 C 528.44441 537.30498 511.48051 543.56689 498.19611 550.23799 C 491.703 553.49861 486.10028 555.87653 485.74689 555.52314 C 484.87845 554.6547 503.92559 539.56854 514.66681 532.61689 C 540.5665 515.85481 573.93866 505.38652 615.05353 501.12666 C 624.16014 500.18313 629.98573 499.05673 628.90314 498.45088 C 627.87539 497.87572 613.69884 496.99417 597.39923 496.48994 C 581.09964 495.9857 568.56553 495.13086 569.54767 494.5915 C 573.51127 492.41479 600.29098 486.58936 615.06915 484.68916 C 644.86441 480.85807 686.39725 482.03404 714.0008 487.48994 C 728.59354 490.37423 695.55384 477.10639 675.33478 471.9626 C 668.73485 470.28354 662.76386 468.40344 662.0672 467.78681 C 659.97465 465.93469 686.45728 466.53454 699.33478 468.63056 C 713.34925 470.91169 725.81395 474.95796 742.21564 482.54853 L 754.0008 488.00166 L 749.31134 483.66767 C 746.73191 481.28379 740.73121 475.87746 735.97736 471.654 C 731.22348 467.43057 728.2348 464.25087 729.33478 464.5876 C 764.94299 475.48781 773.88149 477.41536 792.71369 478.25166 C 806.7481 478.87491 811.57642 478.59062 817.80158 476.78096 L 825.51056 474.54072 L 835.75665 478.44111 C 841.39144 480.58652 849.15617 483.13069 853.01251 484.09346 C 856.86888 485.05618 859.5689 486.23703 859.01251 486.71846 C 855.84862 489.45608 814.87081 498.66572 805.85431 498.66572 C 800.44489 498.66572 800.24126 499.83075 804.7254 505.15986 C 810.23642 511.70929 822.59199 519.12429 835.03595 523.34931 C 841.43278 525.52123 846.66681 527.63753 846.66681 528.05244 C 846.66681 528.46735 843.81812 529.81375 840.33478 531.04463 C 822.35441 537.39822 803.59604 538.96388 788.66681 535.35908 C 774.7223 531.99203 774.40234 532.57858 784.28009 543.38642 C 797.42172 557.76546 809.36044 562.83529 830.0008 562.80439 C 837.33406 562.79339 845.28347 562.2006 847.66681 561.48603 C 850.05012 560.77145 852.00079 560.31086 852.0008 560.4626 C 852.0008 560.61434 847.33334 565.52179 841.62775 571.36885 C 825.3234 588.07732 818.46254 603.95557 816.51251 629.49385 C 815.59863 641.46224 817.54982 656.62778 820.52814 660.70088 C 822.39967 663.2603 823.01813 662.26502 828.79572 647.4001 C 835.65913 629.74136 847.90146 611.62577 860.30548 600.7751 C 864.14561 597.41582 867.67375 594.66572 868.14533 594.66572 C 868.6169 594.66572 867.62185 598.47426 865.93244 603.12861 C 858.23732 624.32835 856.38261 651.84071 861.32697 671.45283 C 865.57363 688.29757 877.71059 710.73528 880.86798 707.57783 C 881.33573 707.11011 883.12457 700.2629 884.84455 692.36299 C 888.13872 677.2325 894.24947 658.66572 895.93439 658.66572 C 896.4823 658.66572 896.3663 662.11705 895.67658 666.33369 C 892.81949 683.80044 897.17057 709.2225 906.14142 727.47822 C 910.70418 736.76337 918.38495 746.66572 921.02423 746.66572 C 923.26808 746.66572 924.00621 741.13867 923.159 730.66572 C 921.9213 715.36549 924.73453 693.48245 929.88751 678.33369 C 932.31965 671.18376 933.83445 665.33369 933.25275 665.33369 C 931.39383 665.33369 924.01872 675.10358 920.54376 682.16963 C 918.69451 685.93002 916.2116 693.92232 915.02814 699.92939 C 912.57739 712.36906 912.00798 712.08712 907.80548 696.3708 C 902.4636 676.39342 904.37283 648.28366 912.10236 633.13252 C 913.51284 630.36777 914.66681 627.36566 914.66681 626.46064 C 914.66681 623.47791 907.91106 633.80458 902.5379 644.9997 C 899.49946 651.33049 896.4336 655.9997 895.31525 655.9997 C 892.6462 655.9997 887.53182 664.28878 883.86798 674.55439 C 880.09787 685.11784 879.2262 683.2033 881.31134 668.94306 C 885.03875 643.45121 893.12878 627.02659 910.87775 608.91963 C 917.22691 602.44237 921.56551 597.47092 920.51837 597.87275 C 915.28129 599.8824 902.35014 609.99742 895.0672 617.78291 C 886.55949 626.87766 875.59777 646.34815 873.90509 655.3708 C 873.42452 657.93251 872.40851 660.41401 871.64728 660.88447 C 870.70787 661.46508 870.49085 657.28243 870.9715 647.86494 C 872.36867 620.48971 881.97578 603.22037 913.24884 571.86103 C 932.38938 552.66767 954.44808 534.13015 975.33478 519.68525 C 1000.9262 501.98679 1024.1454 491.29715 1051.661 484.55049 C 1059.9065 482.52854 1066.4086 480.63013 1066.1082 480.32978 C 1064.8955 479.1171 1043.9078 483.16308 1032.4461 486.82002 C 985.68883 501.73838 913.75004 556.2368 881.72736 600.9997 C 878.44854 605.58304 875.55433 609.33369 875.29572 609.33369 C 874.35421 609.33369 881.04342 591.14794 884.4754 584.37666 C 886.4144 580.55106 888.0008 577.18 888.0008 576.88447 C 888.0008 576.58894 883.65139 578.60305 878.33478 581.35908 C 862.89921 589.3605 860.71102 589.32596 869.33478 581.22236 C 897.66978 554.59646 928.76054 529.62689 950.30158 516.19502 C 983.09624 495.7459 1027.154 479.15169 1055.6668 476.51142 C 1060.9835 476.0191 1065.3348 475.04344 1065.3348 474.34346 C 1065.3348 473.00232 1055.6951 473.69301 1039.3348 476.20674 C 1013.2322 480.21732 968.71013 499.89697 936.11603 521.82978 C 897.30993 547.94278 856.37109 584.73258 837.60626 610.35517 C 832.34741 617.53595 831.26195 618.44558 830.88947 615.98799 C 830.20246 611.455 835.80647 597.96292 842.72736 587.48408 C 881.71096 528.45911 983.20979 471.38637 1050.6668 470.56025 C 1059.0041 470.45815 1060.0017 470.2266 1056.6668 469.17158 C 1051.4521 467.52183 1032.2061 468.9089 1014.9793 472.17549 C 995.6092 475.84848 977.2887 482.45099 952.66681 494.63447 C 929.30643 506.1937 912.0379 516.99354 886.92072 535.7458 C 871.60805 547.17809 866.48088 550.20356 868.80744 546.43916 C 869.4923 545.33094 869.03257 545.19972 867.21955 545.98408 C 859.15268 549.47389 846.22132 551.84508 835.33478 551.82978 C 818.14612 551.80568 816.10995 550.41922 828.87775 547.4333 C 842.59158 544.22615 849.18999 540.76666 878.66681 521.33174 C 915.96549 496.73961 956.58593 478.11716 994.0008 468.45478 C 1007.6098 464.94029 1010.4468 464.67103 1033.3348 464.73213 C 1056.8629 464.79493 1057.7238 464.70623 1052.0008 462.82783 C 1043.145 459.9212 1014.3649 460.08594 1000.0008 463.12471 C 977.58495 467.86685 948.53586 478.64748 922.66681 491.82392 C 909.10021 498.73411 893.50073 506.66158 888.0008 509.44111 C 869.77385 518.65245 855.2571 519.33895 835.44806 511.92744 C 826.98966 508.76275 825.84835 506.66572 832.58478 506.66572 C 843.08532 506.66572 871.60499 498.22526 886.66681 490.65986 C 892.16679 487.89726 900.33184 482.88111 904.81134 479.51338 C 913.28333 473.14401 930.66681 455.55439 930.66681 453.35127 C 930.66681 452.65584 924.9363 455.6993 917.93048 460.11299 C 903.89164 468.95753 889.02715 475.44588 879.91876 476.70674 L 874.0008 477.52705 L 880.81915 473.42549 C 887.84845 469.19679 900.49589 458.71746 899.62384 457.84541 C 899.35318 457.57475 894.97708 459.39704 889.89923 461.89424 C 877.35366 468.06393 866.40629 470.67049 853.14142 470.64619 C 839.91826 470.62199 836.01245 469.08216 843.17462 466.71846 C 845.82902 465.84242 848.00943 464.7233 848.02033 464.23017 C 848.03123 463.73704 850.05188 460.95495 852.51056 458.04853 C 856.40548 453.44437 857.61777 452.80691 861.93048 453.09736 C 870.61323 453.68212 888.35669 450.57255 898.2547 446.73213 C 909.95168 442.19367 923.06198 433.04637 929.99494 424.58564 C 932.83761 421.11652 934.6013 418.51643 933.91486 418.80635 C 933.22842 419.09628 927.56806 422.12984 921.33478 425.54853 C 911.51328 430.93527 886.9628 440.74357 885.92072 439.69697 C 885.72161 439.49699 893.05735 432.26385 902.2215 423.62471 C 915.91309 410.71746 921.00453 406.85262 930.77619 401.94502 C 937.31659 398.66021 942.66681 395.73319 942.66681 395.44111 C 942.66681 395.14903 938.91806 396.06409 934.33478 397.47236 C 923.15603 400.90712 905.21 404.00884 896.82697 403.95674 C 889.00116 403.90814 889.17776 403.68056 902.96759 396.01728 C 907.58176 393.45315 916.17461 386.57502 922.1258 380.6833 C 934.84868 368.08748 941.49325 356.01284 944.96955 339.17158 C 947.08246 328.93514 947.06916 326.95832 944.72931 302.94111 C 941.67064 271.54574 942.3445 254.39316 947.19806 240.10127 C 952.07669 225.73563 952.45981 225.50503 964.25861 229.8083 C 994.93143 240.99531 1037.59 272.35216 1054.0008 295.7751 C 1057.6674 301.00848 1061.1942 305.30031 1061.8387 305.31221 C 1062.7847 305.32966 1062.3199 297.62456 1060.9246 290.16767 C 1060.7832 289.41213 1065.4146 287.41667 1071.2156 285.73213 C 1089.4664 280.43235 1128.051 278.92462 1144.6668 282.86299 C 1149.1745 283.93143 1163.7223 289.08391 1165.0985 290.09931 C 1165.3359 290.27449 1164.5865 292.24454 1163.4324 294.47627 C 1162.2783 296.708 1161.3348 298.9409 1161.3348 299.43721 C 1161.3348 299.93347 1165.798 296.09703 1171.2547 290.91377 C 1203.01 260.74953 1257.9436 226.66572 1274.8035 226.66572 z M 966.45197 241.33369 C 957.88017 241.33069 951.56654 256.19832 951.44806 276.66572 C 951.34966 293.67056 953.34808 301.42202 962.1883 318.35322 C 966.11891 325.88136 969.44283 333.08143 969.57501 334.35322 C 969.70719 335.62499 970.03864 333.81703 970.3133 330.33369 C 970.58792 326.85038 971.30735 323.99971 971.91095 323.99971 C 972.51454 323.99971 975.16305 324.89971 977.79572 325.99971 C 980.42834 327.09966 985.75034 327.99042 989.62384 327.97822 L 996.66681 327.95478 L 986.94806 323.22627 C 979.92238 319.80804 976.10517 316.95088 973.17267 312.91572 L 969.11408 307.33369 L 972.55548 306.91181 L 975.99494 306.48994 L 971.9422 303.07783 C 969.71268 301.20183 968.13177 299.42537 968.42853 299.12861 C 968.72529 298.83186 976.66591 301.59086 986.07501 305.25947 C 995.48411 308.92806 1003.3754 311.73632 1003.6121 311.49971 C 1004.0216 311.09016 984.39942 297.70794 972.33478 290.16963 C 969.21813 288.22225 966.66681 286.10154 966.66681 285.45674 C 966.66681 284.81195 972.45214 285.75321 979.52228 287.54853 C 992.10304 290.74312 1002.2533 295.03058 1009.7449 300.31611 C 1016.5373 305.10837 1014.9269 301.77896 1007.0613 294.76533 C 1002.8112 290.97547 996.16409 286.32211 992.28986 284.42549 C 988.41559 282.52883 985.52916 280.69399 985.8758 280.34736 C 986.89911 279.324 1004.2149 285.26989 1010.0203 288.63838 C 1018.0897 293.32043 1028.3111 304.91264 1033.286 315.0251 C 1035.7278 319.98949 1037.9321 323.84572 1038.1844 323.59346 C 1039.0589 322.719 1034.5262 307.29966 1031.3504 300.34541 C 1027.1626 291.17532 1019.8921 280.31966 1012.2039 271.75752 C 998.86444 256.90132 975.45768 241.33669 966.45197 241.33369 z M 1258.3445 243.48994 C 1256.2053 243.25452 1253.7596 243.63946 1250.9344 244.57783 C 1234.3019 250.10219 1207.2765 275.06734 1193.243 297.8708 C 1189.65 303.70913 1186.9819 308.75821 1187.3152 309.0915 C 1187.6485 309.42479 1193.0973 304.79966 1199.4227 298.81221 C 1205.7481 292.82472 1214.6151 285.41644 1219.1277 282.34931 C 1227.1808 276.8762 1245.6347 268.04743 1249.0887 268.01533 C 1250.0534 268.00633 1246.401 271.52809 1240.9735 275.8415 C 1231.1454 283.65147 1220.3079 295.41628 1221.6785 296.78681 C 1222.0745 297.18287 1225.9091 295.73776 1230.2 293.57588 C 1234.4908 291.41395 1242.05 288.43399 1246.9988 286.95283 L 1255.9969 284.25947 L 1253.241 288.13056 C 1249.1125 293.92856 1236.2933 303.95338 1228.0008 307.86885 C 1221.2145 311.07306 1220.9495 311.36473 1224.4422 311.76533 C 1226.5181 312.00344 1233.1174 311.17034 1239.1082 309.91377 C 1263.881 304.71771 1264.2738 304.80928 1257.3699 314.19697 C 1253.7809 319.07722 1247.8959 323.87139 1240.6668 327.80244 C 1238.7277 328.85689 1238.5605 329.26317 1240.0535 329.29267 C 1242.2403 329.33587 1254.9846 326.17545 1259.1844 324.54853 C 1261.5105 323.64744 1261.6514 324.14801 1261.0692 331.16767 C 1260.7229 335.34382 1260.8995 338.2884 1261.4598 337.7126 C 1264.0356 335.06577 1269.4605 322.26511 1271.282 314.53681 C 1273.9558 303.19365 1273.9292 277.47565 1271.2313 264.27705 C 1268.416 250.50324 1264.7644 244.19853 1258.3465 243.48994 L 1258.3445 243.48994 z M 1084.9774 302.94306 C 1084.9776 302.9432 1084.9771 302.94684 1084.9774 302.94697 C 1084.9777 302.94714 1084.979 302.94289 1084.9793 302.94306 L 1084.9774 302.94306 z M 1084.9774 302.94697 C 1084.7812 302.84 1084.4137 303.67003 1083.6766 305.33369 C 1077.7677 318.67019 1072.4101 328.96399 1066.0633 339.16963 L 1058.702 351.00556 L 1055.3641 343.83564 L 1052.0262 336.66572 L 1052.0125 341.38642 C 1051.9975 346.97244 1055.0623 359.32254 1058.2059 366.33955 L 1060.4422 371.33369 L 1061.3485 363.99971 C 1062.3525 355.87784 1065.0454 349.98193 1074.2371 335.77314 C 1080.7625 325.68588 1085.3917 313.24919 1085.241 306.21455 C 1085.1961 304.1102 1085.1724 303.05925 1084.9774 302.94697 z M 1135.5027 305.33369 C 1133.5417 305.33369 1139.2217 321.45063 1144.7235 331.49189 C 1155.3358 350.86141 1157.0745 354.95706 1158.7469 364.56025 L 1160.3426 373.71846 L 1164.8817 366.5251 C 1170.063 358.31531 1173.3774 348.36459 1173.241 341.42353 C 1173.149 336.71748 1173.1214 336.74192 1170.7957 343.56221 C 1169.5025 347.3547 1167.3675 352.10078 1166.0516 354.10908 L 1163.659 357.75947 L 1160.6981 350.48213 C 1159.0695 346.47914 1154.01 337.34648 1149.4539 330.18721 C 1144.8978 323.02789 1140.027 314.50678 1138.6317 311.25166 C 1137.2364 307.99651 1135.8293 305.33369 1135.5027 305.33369 z M 1125.6336 331.7165 C 1124.6857 330.78618 1124.6668 335.52464 1124.6668 353.86299 C 1124.6668 367.50237 1124.8011 378.66285 1124.9656 378.66377 C 1126.1192 378.66977 1129.3238 369.99414 1130.4832 363.72236 C 1132.0772 355.09965 1130.5672 342.59902 1126.9246 334.24385 C 1126.3682 332.96748 1125.9496 332.0266 1125.6336 331.7165 z M 1103.2547 334.79072 C 1103.2551 334.79043 1103.2562 334.79491 1103.2567 334.79463 C 1103.2568 334.79453 1103.2565 334.79082 1103.2567 334.79072 L 1103.2547 334.79072 z M 1103.2567 334.79463 C 1102.7779 335.13215 1102.9131 338.89375 1103.3152 348.66572 C 1103.6779 357.46564 1104.3483 366.30999 1104.8055 368.31806 C 1105.2627 370.32618 1106.2417 371.59548 1106.9813 371.13838 C 1109.1469 369.79998 1107.4532 342.83177 1104.8582 337.33369 C 1104.052 335.62559 1103.5444 334.59706 1103.2567 334.79463 z M 1094.3348 336.00556 C 1094.0784 336.00256 1093.5779 336.661 1092.5809 337.98017 C 1090.0477 341.33191 1085.3348 356.45689 1085.3348 361.23213 C 1085.3348 363.22173 1086.3755 368.10845 1087.6473 372.0915 L 1089.9598 379.33369 L 1090.784 364.66572 C 1091.2381 356.59911 1092.2987 347.90331 1093.1395 345.3415 C 1093.9802 342.77968 1094.6488 339.48096 1094.6258 338.00947 C 1094.6048 336.67639 1094.5908 336.00905 1094.3348 336.00556 z M 1140.3406 341.99971 L 1140.409 355.99971 C 1140.448 363.69964 1140.0054 373.22587 1139.4246 377.16963 C 1138.0805 386.29572 1140.4141 385.41121 1143.2977 375.70088 C 1145.9328 366.82777 1145.7611 358.4602 1142.7547 349.33369 L 1140.3406 341.99971 z M 1079.9832 342.65986 C 1079.5349 342.30987 1078.3005 344.76261 1076.2586 349.99971 C 1071.8448 361.3207 1071.5145 366.60106 1074.6883 375.08369 C 1076.2489 379.25466 1077.9544 382.66572 1078.4793 382.66572 C 1079.0042 382.66572 1078.8782 378.27779 1078.1981 372.91377 C 1077.2582 365.50106 1077.4486 360.51493 1078.993 352.13447 C 1080.0936 346.16257 1080.4315 343.00985 1079.9832 342.65986 z M 1034.0008 374.90791 C 1017.555 374.2795 1010.1257 376.56379 994.26251 387.12471 C 988.25155 391.12652 980.33346 395.96192 976.66681 397.8708 L 970.0008 401.3415 L 975.33478 400.53681 C 978.26811 400.09435 985.31748 398.34076 991.0008 396.64033 L 1001.3348 393.54853 L 1001.3348 399.86494 C 1001.3348 416.32243 1010.3736 429.82961 1024.1199 433.91181 C 1037.0355 437.74734 1046.369 435.85747 1062.6336 426.11494 C 1073.7782 419.43933 1074.6143 419.6718 1074.6473 429.44502 C 1074.6583 432.80608 1075.0632 435.95077 1075.5457 436.4333 C 1077.1266 438.01419 1079.9138 434.49123 1080.7938 429.80049 C 1081.2682 427.27161 1080.94 421.48267 1080.0652 416.93525 C 1076.7468 399.68457 1067.8726 386.67279 1054.3856 379.28096 C 1048.2214 375.90262 1045.657 375.3533 1034.0008 374.90791 z M 1182.5828 378.88056 C 1170.7388 378.4654 1169.0393 378.72906 1162.2879 382.03486 C 1148.6509 388.71215 1136.5155 404.81518 1132.7957 421.16963 C 1130.9811 429.14758 1130.9753 432.56849 1132.7742 438.41767 C 1133.7976 441.74471 1135.8254 438.59485 1137.3328 431.33369 C 1138.1648 427.32595 1139.3364 423.7435 1139.9363 423.37275 C 1140.5362 423.00201 1144.9722 425.34266 1149.7938 428.57588 C 1160.6347 435.84544 1169.8917 438.10382 1180.6824 436.10908 C 1189.065 434.55948 1193.3107 431.96624 1200.5203 423.98603 C 1206.0229 417.89537 1207.5466 414.58962 1209.6453 404.20088 L 1211.0867 397.06806 L 1219.6551 397.98408 C 1228.8639 398.97024 1243.9988 397.74686 1243.9988 396.01533 C 1243.9988 395.43418 1239.5993 394.73612 1234.2215 394.46455 C 1225.5095 394.02461 1222.8659 393.17289 1209.9774 386.65205 C 1195.8252 379.4922 1195.2315 379.32395 1182.5848 378.88056 L 1182.5828 378.88056 z M 1024.1902 385.33369 L 1028.4656 385.33369 L 1025.7332 388.33369 C 1021.707 392.75402 1020.0008 396.63537 1020.0008 401.37666 C 1020.0008 406.67324 1023.4802 414.15092 1027.1375 416.7126 C 1037.2863 423.82102 1052.6531 410.33241 1050.0731 396.57978 C 1049.4475 393.24506 1049.6904 391.9997 1050.9695 391.99971 C 1053.5554 391.99971 1061.6475 399.09497 1064.3289 403.71455 C 1066.6388 407.69413 1066.6223 407.77356 1062.2391 414.19502 C 1059.8098 417.75381 1054.9457 422.61638 1051.4285 424.99971 C 1045.8963 428.74848 1043.9293 429.3252 1036.8504 429.279 C 1032.0794 429.2479 1026.9991 428.35032 1024.6668 427.12471 C 1019.2155 424.2599 1012.2139 417.50663 1009.6746 412.66572 C 1006.9199 407.41432 1006.724 394.47891 1009.3504 391.31221 C 1011.9967 388.12148 1018.9181 385.33369 1024.1902 385.33369 z M 1181.4402 391.51338 C 1182.22 390.82323 1204.4326 396.06519 1205.6981 397.23799 C 1206.2645 397.7629 1205.4426 402.34826 1203.8738 407.42744 C 1200.1974 419.33092 1193.2145 426.74331 1182.7488 429.85127 C 1174.8339 432.20183 1170.6963 432.37725 1164.7918 430.61103 C 1159.8872 429.1439 1152.5131 422.11521 1149.2606 415.80635 L 1146.7547 410.94502 L 1150.7527 405.42744 C 1154.3443 400.46919 1161.6669 394.68456 1164.368 394.67158 C 1164.9369 394.66858 1164.444 396.52035 1163.2723 398.78681 C 1160.6812 403.79726 1161.6734 411.70896 1165.5027 416.57783 C 1170.9538 423.50793 1182.9858 421.74168 1187.3113 413.37666 C 1190.6949 406.83362 1189.6468 401.63783 1183.6063 395.00556 C 1182.1061 393.3585 1181.1318 391.78638 1181.4402 391.51338 z M 1101.3055 443.18525 C 1093.5328 443.17825 1086.0858 444.01532 1083.0008 445.70088 C 1074.8682 450.14415 1077.2583 454.84672 1092.3348 464.06806 C 1098.4071 467.78214 1098.6668 468.19339 1098.6668 474.0583 C 1098.6668 482.03186 1097.1983 484.51851 1089.9949 488.73994 C 1081.7229 493.58763 1071.8577 495.94925 1059.3348 496.07783 C 1053.4681 496.13803 1047.4675 496.67798 1046.0008 497.279 C 1041.1903 499.25028 1050.2082 501.652 1062.6668 501.7165 C 1075.7116 501.7841 1088.6017 498.18059 1096.911 492.14424 L 1102.0008 488.44697 L 1109.3348 493.41572 C 1120.57 501.02625 1127.8245 503.04896 1143.6121 502.97236 L 1157.2215 502.90596 L 1166.7039 512.88642 C 1192.8451 540.40608 1205.3988 574.69403 1199.5027 602.4665 C 1198.3098 608.08549 1195.1457 616.48661 1192.0867 622.15791 C 1188.1833 629.39436 1187.4 631.70024 1189.1688 630.75361 C 1192.8586 628.77887 1198.3661 620.9442 1202.9539 611.14033 C 1215.4954 584.33991 1203.3193 548.86502 1169.2117 512.82588 C 1162.8924 506.14873 1157.2739 500.7626 1155.4383 499.4626 L 1154.7039 498.66767 L 1153.3973 497.81416 C 1149.882 494.67709 1145.7216 491.03148 1145.5985 490.92353 C 1145.7368 490.69901 1146.4217 490.81875 1148.0106 491.31025 C 1153.1937 492.91361 1158.5104 495.84163 1169.3348 503.06025 C 1198.536 522.53416 1230.4215 553.10504 1264.5594 594.35322 C 1276.2335 608.45886 1285.9849 619.99971 1286.2274 619.9997 C 1287.9161 619.9997 1285.5491 616.1856 1278.2371 607.11885 C 1273.6007 601.36986 1265.0507 590.67752 1259.2371 583.35713 C 1245.9061 566.57095 1214.9546 534.60715 1199.6199 521.79267 C 1177.5561 503.35458 1155.2078 489.84367 1140.3973 485.98603 C 1134.862 484.54427 1132.0363 483.91593 1131.743 484.38447 C 1131.4497 484.85301 1133.6888 486.4176 1138.284 489.36103 C 1141.6727 491.53164 1143.0735 492.23724 1144.5867 493.01924 L 1144.3485 492.96064 L 1151.827 498.04853 C 1149.2421 497.51656 1145.4227 497.00658 1140.8641 496.80439 C 1127.1808 496.19749 1117.9662 493.31399 1111.3055 487.55635 C 1106.3094 483.2376 1106.294 483.19303 1107.2391 475.62861 L 1108.1883 468.03681 L 1118.7098 462.56221 C 1133.4599 454.88837 1134.1867 450.60738 1121.5633 445.73603 C 1117.1774 444.04352 1109.0781 443.19249 1101.3055 443.18525 z M 1098.7879 447.05635 C 1104.9487 446.84465 1113.1579 448.19202 1119.3348 450.6501 L 1123.3348 452.24189 L 1114.6668 455.43135 C 1109.9002 457.18588 1104.2008 458.59711 1102.0008 458.56611 C 1097.891 458.50821 1088.0008 452.95185 1088.0008 450.70088 C 1088.0008 450.00766 1090.4586 448.70415 1093.4617 447.80439 C 1094.9092 447.37071 1096.7343 447.12692 1098.7879 447.05635 z M 1066.3367 483.22431 C 1065.5244 482.41206 1049.9741 487.68295 1040.6668 491.92549 C 983.69944 517.89306 936.66681 584.12629 945.35822 626.14033 C 948.68311 642.21285 961.0615 660.54719 976.0008 671.5251 C 984.96783 678.11438 985.54892 676.9055 977.05353 669.33369 C 969.32443 662.44486 960.77442 650.14734 956.95587 640.42939 C 951.29697 626.02781 951.41295 600.54121 957.21564 583.67549 C 970.05991 546.343 1011.7495 504.65742 1050.1317 490.76924 C 1062.5231 486.28527 1067.2144 484.102 1066.3367 483.22431 z M 1147.1043 515.14814 C 1146.2637 515.19694 1143.2575 516.67406 1137.2156 519.63056 C 1127.4392 524.41462 1114.174 527.95017 1105.8817 527.98017 C 1098.3941 528.00727 1081.6957 523.56958 1073.3289 519.32978 C 1069.519 517.39921 1066.1345 516.08866 1065.8074 516.41572 C 1064.6494 517.57371 1079.4492 528.40799 1087.3348 532.17549 C 1104.8553 540.54623 1128.9903 535.0362 1144.0008 519.23799 C 1146.6209 516.48032 1147.945 515.09928 1147.1043 515.14814 z M 1033.827 568.81416 C 1033.768 568.65057 1033.6185 568.70288 1033.3797 568.92939 C 1033.0614 569.2314 1032.5833 569.84304 1031.9461 570.66572 C 1025.183 579.3971 1020.52 599.3387 1022.6336 610.48408 C 1025.0481 623.21518 1034.3179 636.80313 1046.9168 646.07783 C 1051.3414 649.33505 1055.4916 651.99971 1056.1395 651.9997 C 1056.7874 651.9997 1053.204 647.9497 1048.1766 642.9997 C 1038.5155 633.4874 1034.0654 626.25805 1031.1473 615.33369 C 1028.5471 605.59967 1028.8927 588.84001 1031.9324 577.24189 C 1033.3745 571.73894 1034.0049 569.30495 1033.827 568.81416 z M 1057.8074 584.80439 C 1057.0735 585.5334 1057.5278 599.10888 1058.7137 606.66572 C 1061.3515 623.47462 1072.3984 639.72508 1087.8485 649.52314 C 1091.1519 651.61845 1094.4155 653.33369 1095.0985 653.33369 C 1095.7815 653.33369 1092.0757 648.84347 1086.8641 643.35713 C 1076.0681 631.99174 1069.2991 619.72647 1062.9344 599.9997 C 1060.6867 593.03311 1058.5543 586.43369 1058.1961 585.33369 C 1058.0414 584.85844 1057.9123 584.70024 1057.8074 584.80439 z M 1174.0887 588.66572 L 1173.2059 603.33369 C 1172.1515 620.84013 1167.705 634.4296 1157.3231 651.88447 C 1153.6622 658.03946 1150.6858 663.43342 1150.7078 663.8708 C 1150.7868 665.45401 1161.2511 652.49978 1165.3817 645.70478 C 1175.8238 628.52706 1179.3298 612.12661 1175.8699 596.63642 L 1174.0887 588.66572 z M 983.40509 599.33369 L 982.15509 605.9997 C 980.12503 616.83449 982.95104 631.95655 989.5047 645.33369 C 993.85901 654.22156 997.25717 658.82349 1005.2527 666.66572 C 1016.3083 677.50924 1024.6211 682.97202 1040.8621 690.0622 C 1050.2059 694.14141 1054.8339 695.66694 1053.2235 694.13838 C 1052.9179 693.84846 1047.6991 689.93865 1041.6277 685.44892 C 1027.7564 675.19139 1010.9944 659.24084 1003.2254 648.90595 C 994.82439 637.73011 988.12933 623.07053 985.58283 610.27705 L 983.40509 599.33369 z M 1259.0496 601.83955 C 1258.7396 602.1495 1257.9076 608.61174 1257.2 616.20088 C 1256.4924 623.78998 1254.4838 636.36803 1252.7371 644.15205 C 1249.6457 657.92803 1242.0639 678.66572 1240.118 678.66572 C 1239.5857 678.66572 1239.6923 674.31635 1240.3563 668.9997 C 1241.0203 663.6831 1241.2555 655.13301 1240.8777 649.9997 C 1240.2193 641.05238 1236.4642 626.65069 1234.7977 626.67939 C 1234.3591 626.68739 1233.8717 631.72269 1233.7137 637.86885 C 1233.1811 658.5748 1223.6316 695.00451 1211.661 721.9997 C 1208.7342 728.59968 1205.5048 735.95038 1204.4852 738.33369 C 1203.4657 740.71702 1202.9267 742.66572 1203.286 742.66572 C 1203.6454 742.66572 1209.914 734.71634 1217.2176 724.9997 C 1224.5213 715.2831 1234.5008 702.23301 1239.3934 695.9997 C 1255.7575 675.1514 1261.2971 661.04257 1262.3172 637.6247 C 1262.9526 623.03925 1260.852 600.03715 1259.0496 601.83955 z M 1196.4461 652.74775 C 1196.2534 652.57672 1196.1979 653.49937 1196.1356 655.38642 C 1195.7069 668.35932 1188.3579 685.31561 1173.4168 707.8122 C 1167.7477 716.34817 1162.6749 724.08308 1162.1434 724.9997 C 1161.6119 725.91636 1161.7529 726.66572 1162.4578 726.66572 C 1163.1627 726.66572 1169.2003 720.89706 1175.8738 713.84541 C 1191.2739 697.57315 1197.1778 686.47996 1198.1942 671.90595 C 1198.5742 666.45803 1198.2966 659.59903 1197.577 656.66572 C 1196.9679 654.1826 1196.6388 652.91878 1196.4461 652.74775 z M 1078.0457 674.81025 C 1077.8229 674.64746 1077.6703 674.6854 1077.5692 674.90205 C 1077.4343 675.19091 1077.3898 675.79629 1077.3856 676.66572 C 1077.3596 682.08912 1080.4625 693.35748 1083.9891 700.64228 C 1087.87 708.6591 1101.2917 720.71196 1114.8973 728.39619 C 1121.0037 731.84509 1126.5962 734.66568 1127.3231 734.66572 C 1128.0501 734.66576 1122.0268 728.43811 1113.9402 720.82588 C 1097.129 705.0006 1089.7981 696.01269 1082.5262 682.31416 C 1080.0216 677.59594 1078.7141 675.2986 1078.0457 674.81025 z M 1150.577 687.33369 L 1148.409 691.9997 C 1147.1238 694.76775 1146.2326 700.19305 1146.2156 705.33369 C 1146.1886 713.82507 1148.1364 719.49763 1154.3465 728.9997 C 1155.4249 730.6497 1156.9107 731.9997 1157.6492 731.9997 C 1158.3876 731.9997 1157.9997 730.6497 1156.786 728.9997 C 1149.6629 719.31591 1147.1413 706.52801 1149.6219 692.66572 L 1150.577 687.33369 z M 1002.6668 704.44892 C 1002.6668 706.95032 1009.0602 719.15542 1013.3426 724.82978 C 1020.7915 734.70013 1033.8949 743.98826 1056.6668 755.53877 C 1093.8757 774.41208 1111.77 786.54903 1122.2078 799.98994 C 1125.6293 804.39574 1128.6403 807.9997 1128.8992 807.9997 C 1130.0892 807.9997 1124.768 797.29639 1120.4051 790.91572 C 1114.745 782.63772 1101.4441 770.10687 1090.8152 763.03681 C 1086.7015 760.30025 1072.6041 752.51747 1059.4891 745.74385 C 1034.2422 732.70432 1020.2831 723.05746 1009.3504 711.09541 C 1005.6751 707.07404 1002.6668 704.08396 1002.6668 704.44892 z M 1151.8309 760.16767 C 1150.9571 759.94253 1151.3164 761.16683 1153.2918 763.94111 C 1160.5056 774.0719 1164.4572 788.72354 1162.6551 798.66572 C 1162.057 801.9657 1161.1725 807.06642 1160.6902 809.9997 C 1159.8604 815.04649 1159.9285 815.19064 1161.9481 812.68916 C 1165.011 808.89569 1168.0008 797.90381 1168.0008 790.43916 C 1168.0008 781.72376 1163.7684 771.23795 1157.7684 765.09345 C 1154.8127 762.06667 1152.7046 760.3928 1151.8309 760.16767 z M 1277.5555 765.33369 C 1278.0862 765.33369 1283.5946 771.22507 1289.7957 778.42744 C 1314.5206 807.1451 1334.8096 822.8487 1357.5281 830.85127 C 1381.9835 839.46541 1389.3112 844.41264 1395.2449 856.32002 C 1402.0752 870.02636 1398.7011 876.92912 1383.2762 880.80049 C 1380.442 881.51184 1380.0008 881.16529 1380.0008 878.23017 C 1380.0008 870.47068 1372.7561 860.46692 1363.8465 855.92158 C 1357.57 852.71953 1345.123 852.37416 1342.6668 855.33369 C 1341.2891 856.99374 1341.4434 857.33369 1343.575 857.33369 C 1344.9875 857.33369 1349.3303 858.92198 1353.2254 860.86299 C 1361.4065 864.93973 1368.0008 873.83527 1368.0008 880.79658 C 1368.0008 884.40795 1367.3273 885.316 1363.6668 886.64619 C 1361.2835 887.51229 1354.5335 888.47627 1348.6668 888.78877 C 1329.8029 889.79357 1313.0584 883.53016 1277.3348 862.10322 C 1266.7015 855.7255 1252.3015 847.79696 1245.3348 844.48408 C 1238.3681 841.17119 1229.8146 836.64277 1226.3289 834.42158 L 1219.993 830.38252 L 1226.8699 822.85713 C 1230.6531 818.71844 1236.1287 812.18369 1239.036 808.33369 C 1241.9428 804.48371 1245.0468 801.33369 1245.9344 801.33369 C 1248.0505 801.33369 1255.1688 791.34548 1259.4149 782.41767 L 1262.784 775.33369 L 1261.8895 781.9997 C 1260.854 789.711 1254.6513 807.54664 1250.6434 814.33955 C 1249.1301 816.9044 1248.1254 819.23565 1248.411 819.52119 C 1248.6965 819.80674 1251.7765 816.99979 1255.2527 813.28291 C 1262.5516 805.47962 1270.5348 789.30553 1274.1492 774.9997 C 1275.4924 769.68311 1277.0248 765.33369 1277.5555 765.33369 z M 1052.5965 776.29267 C 1052.3055 776.58364 1058.3836 782.119 1066.1024 788.59345 C 1073.8208 795.06795 1083.1949 803.88397 1086.9344 808.1833 C 1090.6738 812.48261 1093.9143 815.9997 1094.1336 815.9997 C 1094.3528 815.9997 1093.596 813.76246 1092.4539 811.029 C 1087.0583 798.11556 1075.7338 786.5534 1062.1121 780.05244 C 1057.1698 777.69372 1052.8875 776.0017 1052.5965 776.29267 z " />
  </g>
</svg>
